<svg aria-hidden="true" style="width:0;height:0;position:absolute;overflow:hidden" xmlns="http://www.w3.org/2000/svg"><defs><symbol id="icon-bookmark" viewBox="0 0 20 20"><path d="M14 2v17l-4-4-4 4V2c0-.553.585-1.02 1-1h6c.689-.02 1 .447 1 1z"/></symbol><symbol id="icon-chevron-right" viewBox="0 0 20 20"><path d="M9.163 4.516c.418.408 4.502 4.695 4.502 4.695a1.095 1.095 0 0 1 0 1.576s-4.084 4.289-4.502 4.695c-.418.408-1.17.436-1.615 0-.446-.434-.481-1.041 0-1.574L11.295 10 7.548 6.092c-.481-.533-.446-1.141 0-1.576s1.197-.409 1.615 0z"/></symbol><symbol id="icon-aircraft" viewBox="0 0 20 20"><path d="M12.496 17.414c-.394-1.096-1.805-4.775-2.39-6.297-1.103.737-2.334 1.435-3.512 1.928-.366 1.28-1.094 3.709-1.446 4.033-.604.557-.832.485-.925-.279s-.485-3.236-.485-3.236-2.162-1.219-2.84-1.568-.667-.591.057-.974c.422-.223 2.927-.085 4.242.005.861-.951 1.931-1.882 2.993-2.679-1.215-1.076-4.15-3.675-5.034-4.424-.776-.658.079-.797.079-.797.39-.07 1.222-.132 1.628-.009 2.524.763 6.442 2.068 7.363 2.376l1.162-.821c4.702-3.33 5.887-2.593 6.111-2.27s.503 1.701-4.199 5.032l-1.16.823c-.029.98-.157 5.151-.311 7.811-.025.428-.367 1.198-.565 1.544-.001 0-.423.765-.768-.198z"/></symbol><symbol id="icon-chat" viewBox="0 0 20 20"><path d="M5.8 12.2V6H2C.9 6 0 6.9 0 8v6c0 1.1.9 2 2 2h1v3l3-3h5c1.1 0 2-.9 2-2v-1.82a.943.943 0 0 1-.2.021l-7-.001zM18 1H9c-1.1 0-2 .9-2 2v8h7l3 3v-3h1c1.1 0 2-.899 2-2V3c0-1.1-.9-2-2-2z"/></symbol><symbol id="icon-home" viewBox="0 0 20 20"><path d="M18.672 11H17v6c0 .445-.194 1-1 1h-4v-6H8v6H4c-.806 0-1-.555-1-1v-6H1.328c-.598 0-.47-.324-.06-.748L9.292 2.22c.195-.202.451-.302.708-.312.257.01.513.109.708.312l8.023 8.031c.411.425.539.749-.059.749z"/></symbol><symbol id="icon-key" viewBox="0 0 20 20"><path d="M17.691 4.725c-.503-2.977-3.22-4.967-6.069-4.441S6.366 3.1 6.869 6.079c.107.641.408 1.644.763 2.365l-5.175 7.723c-.191.285-.299.799-.242 1.141l.333 1.971a.612.612 0 0 0 .7.514l1.516-.281c.328-.059.744-.348.924-.639l2.047-3.311.018-.022 1.386-.256 2.39-3.879c.785.139 1.912.092 2.578-.031 2.848-.526 4.087-3.67 3.584-6.649zm-2.525 1.527c-.784 1.17-1.584.346-2.703-.475-1.119-.818-2.135-1.322-1.352-2.492s2.326-1.455 3.447-.635c1.12.819 1.391 2.432.608 3.602z"/></symbol><symbol id="icon-location-pin" viewBox="0 0 20 20"><path d="M10 2.009c-2.762 0-5 2.229-5 4.99 0 4.774 5 11 5 11s5-6.227 5-11c0-2.76-2.238-4.99-5-4.99zm0 7.751a2.7 2.7 0 1 1 0-5.4 2.7 2.7 0 0 1 0 5.4z"/></symbol><symbol id="icon-magnifying-glass" viewBox="0 0 20 20"><path d="m17.545 15.467-3.779-3.779a6.15 6.15 0 0 0 .898-3.21c0-3.417-2.961-6.377-6.378-6.377S2.1 4.87 2.1 8.287c0 3.416 2.961 6.377 6.377 6.377a6.15 6.15 0 0 0 3.115-.844l3.799 3.801a.953.953 0 0 0 1.346 0l.943-.943c.371-.371.236-.84-.135-1.211zM4.004 8.287c0-2.366 1.917-4.283 4.282-4.283s4.474 2.107 4.474 4.474c0 2.365-1.918 4.283-4.283 4.283s-4.473-2.109-4.473-4.474z"/></symbol><symbol id="icon-map" viewBox="0 0 20 20"><path d="m19.447 3.718-6-3a1 1 0 0 0-.895 0l-5.63 2.815-5.606-1.869A1 1 0 0 0 0 2.613v13.001c0 .379.214.725.553.894l6 3a1.006 1.006 0 0 0 .894 0l5.63-2.814 5.606 1.869a.999.999 0 0 0 1.316-.949V4.612a.996.996 0 0 0-.552-.894zM8 5.231l4-2v11.763l-4 2V5.231zM2 4l4 1.333v11.661l-4-2V4zm16 12.227-4-1.334V3.231l4 2v10.996z"/></symbol><symbol id="icon-star" viewBox="0 0 20 20"><path d="m10 1.3 2.388 6.722H18.8l-5.232 3.948 1.871 6.928L10 14.744l-5.438 4.154 1.87-6.928-5.233-3.948h6.412L10 1.3z"/></symbol></defs></svg>